<?xml version="1.0" encoding="utf-8"?><!-- Uploaded to: SVG Repo, www.svgrepo.com, Generator: SVG Repo Mixer Tools -->
<svg fill="#000000" width="800px" height="800px" viewBox="0 0 24 24" id="left-arrow-direction-square" data-name="Flat Line" xmlns="http://www.w3.org/2000/svg" class="icon flat-line"><path id="secondary" d="M20,3H4A1,1,0,0,0,3,4V20a1,1,0,0,0,1,1H20a1,1,0,0,0,1-1V4A1,1,0,0,0,20,3ZM12,14.14a1,1,0,0,1-1.5.69L7.38,12.69a.82.82,0,0,1,0-1.38L10.5,9.17a1,1,0,0,1,1.5.69Z" style="fill: rgb(44, 169, 188); stroke-width: 2;"></path><path id="primary" d="M17,12H12m-4.63.69,3.13,2.14a1,1,0,0,0,1.5-.69V9.86a1,1,0,0,0-1.5-.69L7.38,11.31A.82.82,0,0,0,7.37,12.69ZM20,3H4A1,1,0,0,0,3,4V20a1,1,0,0,0,1,1H20a1,1,0,0,0,1-1V4A1,1,0,0,0,20,3Z" style="fill: none; stroke: rgb(0, 0, 0); stroke-linecap: round; stroke-linejoin: round; stroke-width: 2;"></path></svg>